# xmcd
#
# Track frame offsets:
# 180
# 13269
# 26755
# 40032
# 53480
# 67320
# 85744
# 102927
# 115605
# 130272
# 146694
# 158671
# 168082
# 188083
#
# Disc length: 2631 seconds
#
#
# Revision: 1
# Processed by: cddbd v1.5.1PL0 Copyright (c) Steve Scherf et al.
# Submitted via: FreeRIP 2.94 
#
DISCID=b20a450e
DTITLE=Erick Hovey - What You Blue About?
DYEAR=1996
DGENRE=Blues
TTITLE0=What You Blue About?
TTITLE1=Sleep Late
TTITLE2=Rockin The Blues
TTITLE3=Take Me Home
TTITLE4=She's Got A Hold On Me
TTITLE5=Tore Me Apart
TTITLE6=Love Affair
TTITLE7=Nothin Like A Good Guitar
TTITLE8=Shake That Thang
TTITLE9=Empathize
TTITLE10=Got That Feelin
TTITLE11=ABC's
TTITLE12=Walk To Keep From Cryin
TTITLE13=Wicker Benz
EXTD=As heard on\nBluesfestRadio.com
EXTT0=
EXTT1=
EXTT2=
EXTT3=
EXTT4=
EXTT5=
EXTT6=
EXTT7=
EXTT8=
EXTT9=
EXTT10=
EXTT11=
EXTT12=
EXTT13=
PLAYORDER=
